# xmcd CD database file
#
# Track frame offsets:
#	180
#	17864
#	31483
#	44087
#	59532
#	74606
#	95539
#	112079
#	127119
#	142855
#	156128
#	174950
#
# Disc length: 2506 seconds
#
# Revision: 0
# Processed by: cddbd v1.5.2PL0 Copyright (c) Steve Scherf et al.
# Submitted via: CDex 1.79
#
DISCID=b009c80c
DTITLE=Louie Ortega - You and I
DYEAR=1994
DGENRE=Country
TTITLE0=County Line
TTITLE1=Shattered 
TTITLE2=Shop Around
TTITLE3=You and I
TTITLE4=Lonely Times
TTITLE5=Small Town
TTITLE6=Hot Beer and Cold Tamales
TTITLE7=What Am I Gonna Do
TTITLE8=Across My Mind
TTITLE9=Please Wake Up
TTITLE10=The First Time
TTITLE11=Juanita
EXTD=YEAR: 1994
EXTT0=
EXTT1=
EXTT2=
EXTT3=
EXTT4=
EXTT5=
EXTT6=
EXTT7=
EXTT8=
EXTT9=
EXTT10=
EXTT11=
PLAYORDER=
